<?xml version="1.0" encoding="utf-8"?>
<!-- Generator: Adobe Illustrator 16.0.0, SVG Export Plug-In . SVG Version: 6.00 Build 0)  -->
<!DOCTYPE svg PUBLIC "-//W3C//DTD SVG 1.1//EN" "http://www.w3.org/Graphics/SVG/1.1/DTD/svg11.dtd">
<svg version="1.1" id="svg2" xmlns:svg="http://www.w3.org/2000/svg"
	 xmlns="http://www.w3.org/2000/svg" xmlns:xlink="http://www.w3.org/1999/xlink" x="0px" y="0px" width="294px" height="398px"
	 viewBox="0 0 294 398" enable-background="new 0 0 294 398" xml:space="preserve">
<text transform="matrix(1 0 0 1 91.1699 104.1201)" font-family="'MyriadPro-Regular'" font-size="28.5">φ</text>
<text transform="matrix(1 0 0 1 114.6475 312.3047)" font-family="'MyriadPro-Regular'" font-size="28.5">φ</text>
<g id="g6">
	<g id="g8">
		<line id="line10" fill="none" x1="1.453" y1="23.699" x2="265.391" y2="23.699"/>
		<path id="path12" d="M1.312,25.192c44.656,0,89.312,0,133.968,0c43.324,0,86.646,0,129.969,0c1.921,0,2.216-2.987,0.283-2.987
			c-44.656,0-89.313,0-133.968,0c-43.323,0-86.646,0-129.969,0C-0.326,22.205-0.621,25.192,1.312,25.192L1.312,25.192z"/>
	</g>
</g>
<line id="line14" fill="none" stroke="#000000" stroke-dasharray="8" x1="124.903" y1="23.699" x2="124.903" y2="142.521"/>
<line id="line16" fill="none" stroke="#000000" stroke-dasharray="8" x1="158.055" y1="251.011" x2="158.055" y2="369.833"/>
<g id="g18">
	<g id="g20">
		<line id="line22" fill="none" x1="124.903" y1="23.699" x2="158.055" y2="251.011"/>
		<path id="path24" d="M123.426,23.959c6.834,46.869,13.67,93.737,20.505,140.605c4.215,28.902,8.43,57.805,12.645,86.708
			c0.279,1.916,3.232,1.391,2.955-0.521c-6.836-46.868-13.671-93.736-20.506-140.604c-4.215-28.902-8.43-57.805-12.645-86.708
			C126.101,21.522,123.147,22.048,123.426,23.959L123.426,23.959z"/>
	</g>
</g>
<g id="g26">
	<g id="g28">
		<line id="line30" fill="none" x1="158.055" y1="251.011" x2="214.882" y2="361.223"/>
		<path id="path32" d="M156.698,251.655c18.942,36.737,37.886,73.475,56.827,110.212c0.885,1.714,3.601,0.437,2.711-1.287
			c-18.942-36.737-37.885-73.475-56.827-110.212C158.525,248.654,155.811,249.932,156.698,251.655L156.698,251.655z"/>
	</g>
</g>
<radialGradient id="circle1_1_" cx="-128.292" cy="359.3789" r="19.942" gradientTransform="matrix(1 0 0 -1 294 603)" gradientUnits="userSpaceOnUse">
	<stop  offset="0" style="stop-color:#51C6FF"/>
	<stop  offset="1" style="stop-color:#003CFF"/>
</radialGradient>
<circle id="circle1" fill="url(#circle1_1_)" cx="158.055" cy="251.011" r="18.942"/>
<radialGradient id="circle2_1_" cx="-129.0386" cy="360.8721" r="19.942" gradientTransform="matrix(1 0 0 -1 350.7334 712.7344)" gradientUnits="userSpaceOnUse">
	<stop  offset="0" style="stop-color:#51C6FF"/>
	<stop  offset="1" style="stop-color:#003CFF"/>
</radialGradient>
<circle id="circle2" fill="url(#circle2_1_)" cx="214.787" cy="360.746" r="18.942"/>
<text id="text38" transform="matrix(1 0 0 1 148.6094 142.5215)" font-family="'TimesNewRomanPS-ItalicMT'" font-size="38">L</text>
<text id="text40" transform="matrix(1 0 0 1 168.2744 152.1318)" font-family="'TimesNewRomanPSMT'" font-size="27.9972">1</text>
<text id="text42" transform="matrix(1 0 0 1 192.6094 303.5215)" font-family="'TimesNewRomanPS-ItalicMT'" font-size="38">L</text>
<text id="text44" transform="matrix(1 0 0 1 213.2744 311.1309)" font-family="'TimesNewRomanPSMT'" font-size="27.9972">2</text>
<g id="g46">
	<g id="g48">
		<line id="line50" fill="none" x1="54.037" y1="23.699" x2="76.17" y2="1.565"/>
		<path id="path52" d="M55.007,24.843c7.377-7.378,14.755-14.756,22.133-22.134c1.356-1.357-0.569-3.66-1.941-2.288
			c-7.377,7.378-14.755,14.756-22.133,22.134C51.709,23.912,53.635,26.214,55.007,24.843L55.007,24.843z"/>
	</g>
</g>
<g id="g54">
	<g id="g56">
		<line id="line58" fill="none" x1="29.492" y1="23.699" x2="51.625" y2="1.565"/>
		<path id="path60" d="M30.463,24.843c7.377-7.378,14.755-14.756,22.133-22.134c1.356-1.357-0.569-3.66-1.941-2.288
			C43.278,7.799,35.9,15.177,28.522,22.555C27.165,23.912,29.091,26.214,30.463,24.843L30.463,24.843z"/>
	</g>
</g>
<g id="g62">
	<g id="g64">
		<line id="line66" fill="none" x1="4.948" y1="23.699" x2="27.082" y2="1.565"/>
		<path id="path68" d="M5.918,24.843c7.378-7.378,14.756-14.756,22.134-22.134c1.356-1.357-0.569-3.66-1.941-2.288
			C18.733,7.799,11.355,15.177,3.977,22.555C2.621,23.912,4.546,26.214,5.918,24.843L5.918,24.843z"/>
	</g>
</g>
<g id="g70">
	<g id="g72">
		<line id="line74" fill="none" x1="78.581" y1="23.699" x2="100.714" y2="1.565"/>
		<path id="path76" d="M79.551,24.843c7.378-7.378,14.756-14.756,22.134-22.134c1.356-1.357-0.569-3.66-1.941-2.288
			C92.366,7.799,84.988,15.177,77.61,22.555C76.253,23.912,78.179,26.214,79.551,24.843L79.551,24.843z"/>
	</g>
</g>
<g id="g78">
	<g id="g80">
		<line id="line82" fill="none" x1="103.125" y1="23.699" x2="125.259" y2="1.565"/>
		<path id="path84" d="M104.096,24.843c7.378-7.378,14.756-14.756,22.134-22.134c1.356-1.357-0.569-3.66-1.941-2.288
			c-7.378,7.378-14.756,14.756-22.134,22.134C100.798,23.912,102.724,26.214,104.096,24.843L104.096,24.843z"/>
	</g>
</g>
<g id="g86">
	<g id="g88">
		<line id="line90" fill="none" x1="127.67" y1="23.699" x2="149.803" y2="1.565"/>
		<path id="path92" d="M128.641,24.843c7.377-7.378,14.755-14.756,22.132-22.134c1.356-1.357-0.568-3.66-1.94-2.288
			c-7.377,7.378-14.755,14.756-22.133,22.134C125.343,23.912,127.269,26.214,128.641,24.843L128.641,24.843z"/>
	</g>
</g>
<g id="g94">
	<g id="g96">
		<line id="line98" fill="none" x1="152.214" y1="23.699" x2="174.348" y2="1.565"/>
		<path id="path100" d="M153.186,24.843c7.377-7.378,14.756-14.756,22.133-22.134c1.356-1.357-0.568-3.66-1.94-2.288
			C166,7.799,158.622,15.177,151.244,22.555C149.887,23.912,151.812,26.214,153.186,24.843L153.186,24.843z"/>
	</g>
</g>
<g id="g102">
	<g id="g104">
		<line id="line106" fill="none" x1="176.758" y1="23.699" x2="198.893" y2="1.565"/>
		<path id="path108" d="M177.729,24.843c7.379-7.378,14.756-14.756,22.135-22.134c1.355-1.357-0.569-3.66-1.941-2.288
			c-7.378,7.378-14.756,14.756-22.134,22.134C174.432,23.912,176.355,26.214,177.729,24.843L177.729,24.843z"/>
	</g>
</g>
<g id="g110">
	<g id="g112">
		<line id="line114" fill="none" x1="201.302" y1="23.699" x2="223.436" y2="1.565"/>
		<path id="path116" d="M202.271,24.843c7.379-7.378,14.756-14.756,22.135-22.134c1.355-1.357-0.569-3.66-1.941-2.288
			c-7.378,7.378-14.756,14.756-22.134,22.134C198.975,23.912,200.9,26.214,202.271,24.843L202.271,24.843z"/>
	</g>
</g>
<g id="g118">
	<g id="g120">
		<line id="line122" fill="none" x1="225.848" y1="23.699" x2="247.98" y2="1.565"/>
		<path id="path124" d="M226.816,24.843c7.379-7.378,14.757-14.756,22.135-22.134c1.355-1.357-0.569-3.66-1.941-2.288
			c-7.378,7.378-14.756,14.756-22.134,22.134C223.52,23.912,225.445,26.214,226.816,24.843L226.816,24.843z"/>
	</g>
</g>
<g id="g126">
	<g id="g128">
		<line id="line130" fill="none" x1="250.391" y1="23.699" x2="272.523" y2="1.565"/>
		<path id="path132" d="M251.361,24.843c7.378-7.378,14.756-14.756,22.134-22.134c1.356-1.357-0.569-3.66-1.941-2.288
			c-7.378,7.378-14.756,14.756-22.134,22.134C248.062,23.912,249.989,26.214,251.361,24.843L251.361,24.843z"/>
	</g>
</g>
<g id="g136">
	<g id="g138">
		<path id="path140" fill="none" stroke="#000000" d="M187.54,325.967c-7.133,2.809-14.763,4.628-22.722,5.29"/>
		<polygon id="polygon142" points="157.783,331.842 167.361,326.967 165.346,331.213 168.036,335.068 		"/>
		<polygon id="polygon144" points="194.109,323.38 186.341,330.809 187.049,326.161 183.361,323.245 		"/>
	</g>
</g>
<text id="text146" transform="matrix(1 0 0 1 130.1094 321.3223)" font-family="'TimesNewRomanPSMT'" font-size="18.3886">2</text>
<text id="text150" transform="matrix(1 0 0 1 106.6128 112.918)" font-family="'TimesNewRomanPSMT'" font-size="18.3886">1</text>
<line id="line152" fill="none" stroke="#000000" x1="141.347" y1="305.998" x2="176.182" y2="328.611"/>
<g id="g154">
	<g id="g156">
		<path id="path158" fill="none" stroke="#000000" d="M132.152,117.004c0-4.735-15.117-21.454-19.41-21.454"/>
		<polygon id="polygon160" points="132.152,124.065 128.087,114.115 132.152,116.476 136.217,114.115 		"/>
	</g>
</g>
<text id="text162" transform="matrix(1 0 0 1 179.3906 256.5645)" font-family="'TimesNewRomanPSMT'" font-size="27.9972">m</text>
<text id="text164" transform="matrix(1 0 0 1 202.3906 263.5645)" font-family="'TimesNewRomanPSMT'" font-size="18">1</text>
<text id="text166" transform="matrix(1 0 0 1 237.3906 367.5645)" font-family="'TimesNewRomanPSMT'" font-size="27.9972">m</text>
<text id="text168" transform="matrix(1 0 0 1 260.3906 374.5645)" font-family="'TimesNewRomanPSMT'" font-size="18">2</text>
</svg>
