<?xml version="1.0" encoding="UTF-8" standalone="no"?>
<!DOCTYPE svg PUBLIC "-//W3C//DTD SVG 1.1//EN" "http://www.w3.org/Graphics/SVG/1.1/DTD/svg11.dtd">
<!-- Generiert durch Microsoft Visio, SVG Export double-pendulum.svg svg2 -->
<svg xmlns="http://www.w3.org/2000/svg" xmlns:xlink="http://www.w3.org/1999/xlink" xmlns:ev="http://www.w3.org/2001/xml-events"
		xmlns:v="http://schemas.microsoft.com/visio/2003/SVGExtensions/" width="3.0625in" height="4.14583in"
		viewBox="0 0 220.5 298.5" xml:space="preserve" color-interpolation-filters="sRGB" class="st14">
	<v:documentProperties v:langID="1031" v:viewMarkup="false"/>

	<style type="text/css">
	<![CDATA[
		.st1 {fill:none;stroke:none;stroke-linecap:butt;stroke-width:0.75}
		.st2 {fill:#000000;font-family:Calibri;font-size:1.78125em}
		.st3 {stroke:none;stroke-linecap:butt;stroke-width:0.75}
		.st4 {fill:#000000;stroke:none;stroke-linecap:butt;stroke-width:0.75}
		.st5 {stroke:#000000;stroke-dasharray:6,3;stroke-linecap:butt;stroke-width:0.75}
		.st6 {fill:url(#grad1-34);stroke:none;stroke-linecap:butt;stroke-width:0.75}
		.st7 {fill:#000000;font-family:Vijaya;font-size:2.37499em}
		.st8 {fill:#000000;font-family:Calibri;font-size:1.74982em}
		.st9 {fill:none}
		.st10 {stroke:#000000;stroke-linecap:butt;stroke-width:0.75}
		.st11 {fill:#000000;font-family:Calibri;font-size:1.14928em}
		.st12 {fill:#000000;font-family:Vijaya;font-size:1.74982em}
		.st13 {fill:#000000;font-family:Calibri;font-size:1.125em}
		.st14 {fill:none;fill-rule:evenodd;font-size:12px;overflow:visible;stroke-linecap:square;stroke-miterlimit:3}
	]]>
	</style>

	<defs id="Patterns_And_Gradients">
		<radialGradient id="grad1-34" cx="1" cy="1" r="1.4">
			<stop offset="0" stop-color="#51c6ff" stop-opacity="1"/>
			<stop offset="1" stop-color="#003cff" stop-opacity="1"/>
		</radialGradient>
	</defs>
	<g v:mID="0" v:index="1" v:groupContext="foregroundPage">
		<title>svg2</title>
		<v:pageProperties v:drawingScale="1" v:pageScale="1" v:drawingUnits="19" v:shadowOffsetX="9" v:shadowOffsetY="-9"/>
		<g id="shape1-1" v:mID="1" v:groupContext="shape" transform="translate(68.3524,-213.997)">
			<title>Tabelle.1</title>
			<desc>ϕ</desc>
			<v:textBlock v:margins="rect(0,0,0,0)"/>
			<v:textRect cx="10.7125" cy="285.675" width="21.43" height="25.65"/>
			<rect x="0" y="272.85" width="21.425" height="25.65" class="st1"/>
			<text x="0" y="292.09" class="st2" v:langID="1031"><v:paragraph/><v:tabList/>ϕ </text>		</g>
		<g id="shape2-4" v:mID="2" v:groupContext="shape" transform="translate(85.9606,-57.859)">
			<title>Tabelle.2</title>
			<desc>ϕ</desc>
			<v:textBlock v:margins="rect(0,0,0,0)"/>
			<v:textRect cx="10.7125" cy="285.675" width="21.43" height="25.65"/>
			<rect x="0" y="272.85" width="21.425" height="25.65" class="st1"/>
			<text x="0" y="292.09" class="st2" v:langID="1031"><v:paragraph/><v:tabList/>ϕ </text>		</g>
		<g id="group3-7" transform="translate(-0.46575,-279.606)" v:mID="3" v:groupContext="group">
			<title>g8</title>
			<g id="shape4-8" v:mID="4" v:groupContext="shape" transform="translate(1.5555,-1.11975)">
				<title>line10</title>
				<path d="M0 298.5 L197.95 298.5" class="st3"/>
			</g>
			<g id="shape5-11" v:mID="5" v:groupContext="shape">
				<title>path12</title>
				<path d="M1.45 298.5 C34.94 298.5 68.43 298.5 101.93 298.5 C134.42 298.5 166.91 298.5 199.4 298.5 C200.84 298.5 201.06
							 296.26 199.61 296.26 C166.12 296.26 132.63 296.26 99.14 296.26 C66.65 296.26 34.15 296.26 1.66 296.26
							 C0.22 296.26 0 298.5 1.45 298.5 Z" class="st4"/>
			</g>
		</g>
		<g id="shape6-13" v:mID="6" v:groupContext="shape" transform="translate(392.177,17.7743) rotate(90)">
			<title>line14</title>
			<path d="M0 298.5 L89.12 298.5" class="st5"/>
		</g>
		<g id="shape7-16" v:mID="7" v:groupContext="shape" transform="translate(417.041,188.258) rotate(90)">
			<title>line16</title>
			<path d="M0 298.5 L89.12 298.5" class="st5"/>
		</g>
		<g id="group8-19" transform="translate(92.3602,-108.609)" v:mID="8" v:groupContext="group">
			<title>g20</title>
			<g id="shape9-20" v:mID="9" v:groupContext="shape" transform="translate(296.692,83.3047) rotate(81.7023)">
				<title>line22</title>
				<path d="M0 298.5 L172.29 298.5" class="st3"/>
			</g>
			<g id="shape10-23" v:mID="10" v:groupContext="shape">
				<title>path24</title>
				<path d="M0.21 126.58 C5.33 161.73 10.46 196.88 15.59 232.03 C18.75 253.71 21.91 275.39 25.07 297.06 C25.28 298.5
							 27.5 298.11 27.29 296.67 C22.16 261.52 17.03 226.37 11.91 191.22 C8.75 169.54 5.59 147.87 2.42 126.19
							 C2.22 124.75 0 125.15 0.21 126.58 Z" class="st4"/>
			</g>
		</g>
		<g id="group11-25" transform="translate(116.858,-25.8143)" v:mID="11" v:groupContext="group">
			<title>g28</title>
			<g id="shape12-26" v:mID="12" v:groupContext="shape" transform="translate(266.992,77.2752) rotate(62.7237)">
				<title>line30</title>
				<path d="M0 298.5 L93 298.5" class="st3"/>
			</g>
			<g id="shape13-29" v:mID="13" v:groupContext="shape">
				<title>path32</title>
				<path d="M0.67 214.56 C14.87 242.11 29.08 269.66 43.29 297.21 C43.95 298.5 45.99 297.54 45.32 296.25 C31.11 268.7
							 16.91 241.14 2.7 213.59 C2.04 212.3 0 213.26 0.67 214.56 Z" class="st4"/>
			</g>
		</g>
		<g id="shape14-31" v:mID="14" v:groupContext="shape" transform="translate(104.335,-96.0352)">
			<title>circle1</title>
			<ellipse cx="14.2065" cy="284.293" rx="14.2065" ry="14.2065" class="st6"/>
		</g>
		<g id="shape15-35" v:mID="15" v:groupContext="shape" transform="translate(146.884,-13.734)">
			<title>circle2</title>
			<ellipse cx="14.2065" cy="284.293" rx="14.2065" ry="14.2065" class="st6"/>
		</g>
		<g id="shape16-38" v:mID="16" v:groupContext="shape" transform="translate(111.432,-183.059)">
			<title>text38</title>
			<desc>l</desc>
			<v:textBlock v:margins="rect(0,0,0,0)"/>
			<v:textRect cx="14.275" cy="281.4" width="28.55" height="34.2"/>
			<rect x="0" y="264.3" width="28.55" height="34.2" class="st1"/>
			<text x="0" y="289.95" class="st7" v:langID="1031"><v:paragraph/><v:tabList/>l</text>		</g>
		<g id="shape17-41" v:mID="17" v:groupContext="shape" transform="translate(126.181,-178.102)">
			<title>text40</title>
			<desc>1</desc>
			<v:textBlock v:margins="rect(0,0,0,0)"/>
			<v:textRect cx="10.524" cy="285.901" width="21.05" height="25.1975"/>
			<rect x="0" y="273.303" width="21.0479" height="25.1975" class="st1"/>
			<text x="0" y="292.2" class="st8" v:langID="1031"><v:paragraph/><v:tabList/>1</text>		</g>
		<g id="shape18-44" v:mID="18" v:groupContext="shape" transform="translate(144.432,-62.3089)">
			<title>text42</title>
			<desc>l</desc>
			<v:textBlock v:margins="rect(0,0,0,0)"/>
			<v:textRect cx="14.275" cy="281.4" width="28.56" height="34.2"/>
			<rect x="0" y="264.3" width="28.55" height="34.2" class="st1"/>
			<text x="0" y="289.95" class="st7" v:langID="1031"><v:paragraph/><v:tabList/>l</text>		</g>
		<g id="shape19-47" v:mID="19" v:groupContext="shape" transform="translate(159.931,-58.8525)">
			<title>text44</title>
			<desc>2</desc>
			<v:textBlock v:margins="rect(0,0,0,0)"/>
			<v:textRect cx="10.5239" cy="285.901" width="21.05" height="25.1975"/>
			<rect x="0" y="273.303" width="21.0479" height="25.1975" class="st1"/>
			<text x="0" y="292.2" class="st8" v:langID="1031"><v:paragraph/><v:tabList/>2</text>		</g>
		<g id="group20-50" transform="translate(38.7817,-278.839)" v:mID="20" v:groupContext="group">
			<title>g48</title>
			<g id="shape21-51" v:mID="21" v:groupContext="shape" transform="translate(-209.33,85.5471) rotate(-45.0013)">
				<title>line50</title>
				<path d="M0 298.5 L23.48 298.5" class="st3"/>
			</g>
			<g id="shape22-54" v:mID="22" v:groupContext="shape">
				<title>path52</title>
				<path d="M2.47 297.47 C8.01 291.94 13.54 286.4 19.07 280.87 C20.09 279.85 18.65 278.13 17.62 279.16 C12.08 284.69
							 6.55 290.22 1.02 295.76 C0 296.77 1.44 298.5 2.47 297.47 Z" class="st4"/>
			</g>
		</g>
		<g id="group23-56" transform="translate(20.3738,-278.839)" v:mID="23" v:groupContext="group">
			<title>g56</title>
			<g id="shape24-57" v:mID="24" v:groupContext="shape" transform="translate(-209.331,85.5471) rotate(-45.0013)">
				<title>line58</title>
				<path d="M0 298.5 L23.48 298.5" class="st3"/>
			</g>
			<g id="shape25-60" v:mID="25" v:groupContext="shape">
				<title>path60</title>
				<path d="M2.47 297.47 C8.01 291.94 13.54 286.4 19.07 280.87 C20.09 279.85 18.65 278.13 17.62 279.16 C12.08 284.69
							 6.55 290.22 1.02 295.76 C0 296.77 1.44 298.5 2.47 297.47 Z" class="st4"/>
			</g>
		</g>
		<g id="group26-62" transform="translate(1.96575,-278.839)" v:mID="26" v:groupContext="group">
			<title>g64</title>
			<g id="shape27-63" v:mID="27" v:groupContext="shape" transform="translate(-209.326,85.5424) rotate(-45)">
				<title>line66</title>
				<path d="M0 298.5 L23.48 298.5" class="st3"/>
			</g>
			<g id="shape28-66" v:mID="28" v:groupContext="shape">
				<title>path68</title>
				<path d="M2.47 297.47 C8.01 291.94 13.54 286.4 19.07 280.87 C20.09 279.85 18.65 278.13 17.62 279.16 C12.08 284.69
							 6.55 290.22 1.02 295.76 C0 296.77 1.44 298.5 2.47 297.47 Z" class="st4"/>
			</g>
		</g>
		<g id="group29-68" transform="translate(57.1897,-278.839)" v:mID="29" v:groupContext="group">
			<title>g72</title>
			<g id="shape30-69" v:mID="30" v:groupContext="shape" transform="translate(-209.33,85.5471) rotate(-45.0013)">
				<title>line74</title>
				<path d="M0 298.5 L23.48 298.5" class="st3"/>
			</g>
			<g id="shape31-72" v:mID="31" v:groupContext="shape">
				<title>path76</title>
				<path d="M2.47 297.47 C8.01 291.94 13.54 286.4 19.07 280.87 C20.09 279.85 18.65 278.13 17.62 279.16 C12.08 284.69
							 6.55 290.22 1.02 295.76 C0 296.77 1.44 298.5 2.47 297.47 Z" class="st4"/>
			</g>
		</g>
		<g id="group32-74" transform="translate(75.5985,-278.839)" v:mID="32" v:groupContext="group">
			<title>g80</title>
			<g id="shape33-75" v:mID="33" v:groupContext="shape" transform="translate(-209.326,85.5424) rotate(-45)">
				<title>line82</title>
				<path d="M0 298.5 L23.48 298.5" class="st3"/>
			</g>
			<g id="shape34-78" v:mID="34" v:groupContext="shape">
				<title>path84</title>
				<path d="M2.47 297.47 C8.01 291.94 13.54 286.4 19.07 280.87 C20.09 279.85 18.65 278.13 17.62 279.16 C12.08 284.69
							 6.55 290.22 1.02 295.76 C0 296.77 1.44 298.5 2.47 297.47 Z" class="st4"/>
			</g>
		</g>
		<g id="group35-80" transform="translate(94.0073,-278.839)" v:mID="35" v:groupContext="group">
			<title>g88</title>
			<g id="shape36-81" v:mID="36" v:groupContext="shape" transform="translate(-209.331,85.5471) rotate(-45.0013)">
				<title>line90</title>
				<path d="M0 298.5 L23.48 298.5" class="st3"/>
			</g>
			<g id="shape37-84" v:mID="37" v:groupContext="shape">
				<title>path92</title>
				<path d="M2.47 297.47 C8.01 291.94 13.54 286.4 19.07 280.87 C20.09 279.85 18.65 278.13 17.62 279.16 C12.08 284.69
							 6.55 290.22 1.02 295.76 C0 296.77 1.44 298.5 2.47 297.47 Z" class="st4"/>
			</g>
		</g>
		<g id="group38-86" transform="translate(112.415,-278.839)" v:mID="38" v:groupContext="group">
			<title>g96</title>
			<g id="shape39-87" v:mID="39" v:groupContext="shape" transform="translate(-209.326,85.5424) rotate(-45)">
				<title>line98</title>
				<path d="M0 298.5 L23.48 298.5" class="st3"/>
			</g>
			<g id="shape40-90" v:mID="40" v:groupContext="shape">
				<title>path100</title>
				<path d="M2.47 297.47 C8.01 291.94 13.54 286.4 19.07 280.87 C20.09 279.85 18.65 278.13 17.62 279.16 C12.08 284.69
							 6.55 290.22 1.02 295.76 C0 296.77 1.44 298.5 2.47 297.47 Z" class="st4"/>
			</g>
		</g>
		<g id="group41-92" transform="translate(130.824,-278.839)" v:mID="41" v:groupContext="group">
			<title>g104</title>
			<g id="shape42-93" v:mID="42" v:groupContext="shape" transform="translate(-209.322,85.5376) rotate(-44.9987)">
				<title>line106</title>
				<path d="M0 298.5 L23.48 298.5" class="st3"/>
			</g>
			<g id="shape43-96" v:mID="43" v:groupContext="shape">
				<title>path108</title>
				<path d="M2.47 297.47 C8.01 291.94 13.54 286.4 19.07 280.87 C20.09 279.85 18.65 278.13 17.62 279.16 C12.08 284.69
							 6.55 290.22 1.02 295.76 C0 296.77 1.44 298.5 2.47 297.47 Z" class="st4"/>
			</g>
		</g>
		<g id="group44-98" transform="translate(149.231,-278.839)" v:mID="44" v:groupContext="group">
			<title>g112</title>
			<g id="shape45-99" v:mID="45" v:groupContext="shape" transform="translate(-209.326,85.5424) rotate(-45)">
				<title>line114</title>
				<path d="M0 298.5 L23.48 298.5" class="st3"/>
			</g>
			<g id="shape46-102" v:mID="46" v:groupContext="shape">
				<title>path116</title>
				<path d="M2.47 297.47 C8.01 291.94 13.54 286.4 19.07 280.87 C20.09 279.85 18.65 278.13 17.62 279.16 C12.08 284.69
							 6.55 290.22 1.02 295.76 C0 296.77 1.44 298.5 2.47 297.47 Z" class="st4"/>
			</g>
		</g>
		<g id="group47-104" transform="translate(167.64,-278.839)" v:mID="47" v:groupContext="group">
			<title>g120</title>
			<g id="shape48-105" v:mID="48" v:groupContext="shape" transform="translate(-209.335,85.5519) rotate(-45.0026)">
				<title>line122</title>
				<path d="M0 298.5 L23.48 298.5" class="st3"/>
			</g>
			<g id="shape49-108" v:mID="49" v:groupContext="shape">
				<title>path124</title>
				<path d="M2.47 297.47 C8.01 291.94 13.54 286.4 19.07 280.87 C20.09 279.85 18.65 278.13 17.62 279.16 C12.08 284.69
							 6.55 290.22 1.02 295.76 C0 296.77 1.44 298.5 2.47 297.47 Z" class="st4"/>
			</g>
		</g>
		<g id="group50-110" transform="translate(186.046,-278.839)" v:mID="50" v:groupContext="group">
			<title>g128</title>
			<g id="shape51-111" v:mID="51" v:groupContext="shape" transform="translate(-209.334,85.5519) rotate(-45.0026)">
				<title>line130</title>
				<path d="M0 298.5 L23.48 298.5" class="st3"/>
			</g>
			<g id="shape52-114" v:mID="52" v:groupContext="shape">
				<title>path132</title>
				<path d="M2.47 297.47 C8.01 291.94 13.54 286.4 19.07 280.87 C20.09 279.85 18.65 278.13 17.62 279.16 C12.09 284.69
							 6.55 290.22 1.02 295.76 C0 296.77 1.45 298.5 2.47 297.47 Z" class="st4"/>
			</g>
		</g>
		<g id="group53-116" transform="translate(118.337,-47.199)" v:mID="53" v:groupContext="group">
			<title>g138</title>
			<g id="shape54-117" v:mID="54" v:groupContext="shape" transform="translate(5.27625,-2.85825)">
				<title>path140</title>
				<path d="M17.04 294.53 C11.69 296.64 5.97 298 0 298.5 L17.04 294.53 Z" class="st9"/>
				<path d="M17.04 294.53 C11.69 296.64 5.97 298 0 298.5" class="st10"/>
			</g>
			<g id="shape55-120" v:mID="55" v:groupContext="shape">
				<title>polygon142</title>
				<path d="M0 296.08 L7.18 292.42 L5.67 295.61 L7.69 298.5 L0 296.08 Z" class="st4"/>
			</g>
			<g id="shape56-122" v:mID="56" v:groupContext="shape" transform="translate(19.1835,-3.19425)">
				<title>polygon144</title>
				<path d="M8.06 292.93 L2.24 298.5 L2.77 295.01 L0 292.83 L8.06 292.93 Z" class="st4"/>
			</g>
		</g>
		<g id="shape57-124" v:mID="57" v:groupContext="shape" transform="translate(97.557,-53.3708)">
			<title>text146</title>
			<desc>2</desc>
			<v:textBlock v:margins="rect(0,0,0,0)"/>
			<v:textRect cx="6.92073" cy="290.225" width="13.85" height="16.5497"/>
			<rect x="0" y="281.95" width="13.8415" height="16.5497" class="st1"/>
			<text x="0" y="294.36" class="st11" v:langID="1031"><v:paragraph/><v:tabList/>2</text>		</g>
		<g id="shape58-127" v:mID="58" v:groupContext="shape" transform="translate(79.9346,-209.674)">
			<title>text150</title>
			<desc>1</desc>
			<v:textBlock v:margins="rect(0,0,0,0)"/>
			<v:textRect cx="6.92072" cy="290.225" width="13.85" height="16.5497"/>
			<rect x="0" y="281.95" width="13.8415" height="16.5497" class="st1"/>
			<text x="0" y="294.36" class="st11" v:langID="1031"><v:paragraph/><v:tabList/>1</text>		</g>
		<g id="shape59-130" v:mID="59" v:groupContext="shape" transform="translate(268.539,-20.8746) rotate(32.9895)">
			<title>line152</title>
			<path d="M0 298.5 L31.15 298.5" class="st10"/>
		</g>
		<g id="group60-133" transform="translate(84.5565,-205.451)" v:mID="60" v:groupContext="group">
			<title>g156</title>
			<g id="shape61-134" v:mID="61" v:groupContext="shape" transform="translate(4.39648E-014,-5.29575)">
				<title>path158</title>
				<path d="M14.56 298.5 C14.56 294.95 3.22 282.41 0 282.41 L14.56 298.5 Z" class="st9"/>
				<path d="M14.56 298.5 C14.56 294.95 3.22 282.41 0 282.41" class="st10"/>
			</g>
			<g id="shape62-137" v:mID="62" v:groupContext="shape" transform="translate(11.5088,-1.13687E-013)">
				<title>polygon160</title>
				<path d="M3.05 298.5 L0 291.04 L3.05 292.81 L6.1 291.04 L3.05 298.5 Z" class="st4"/>
			</g>
		</g>
		<g id="shape63-139" v:mID="63" v:groupContext="shape" transform="translate(134.518,-99.7773)">
			<title>text162</title>
			<desc>m</desc>
			<v:textBlock v:margins="rect(0,0,0,0)"/>
			<v:textRect cx="10.524" cy="285.901" width="21.05" height="25.1975"/>
			<rect x="0" y="273.303" width="21.0479" height="25.1975" class="st1"/>
			<text x="0" y="292.2" class="st12" v:langID="1031"><v:paragraph/><v:tabList/>m</text>		</g>
		<g id="shape64-142" v:mID="64" v:groupContext="shape" transform="translate(151.768,-96.7766)">
			<title>text164</title>
			<desc>1</desc>
			<v:textBlock v:margins="rect(0,0,0,0)"/>
			<v:textRect cx="6.775" cy="290.4" width="13.55" height="16.2"/>
			<rect x="0" y="282.3" width="13.55" height="16.2" class="st1"/>
			<text x="0" y="294.45" class="st13" v:langID="1031"><v:paragraph/><v:tabList/>1</text>		</g>
		<g id="shape65-145" v:mID="65" v:groupContext="shape" transform="translate(178.018,-16.5273)">
			<title>text166</title>
			<desc>m</desc>
			<v:textBlock v:margins="rect(0,0,0,0)"/>
			<v:textRect cx="10.5239" cy="285.901" width="21.05" height="25.1975"/>
			<rect x="0" y="273.303" width="21.0479" height="25.1975" class="st1"/>
			<text x="0" y="292.2" class="st12" v:langID="1031"><v:paragraph/><v:tabList/>m</text>		</g>
		<g id="shape66-148" v:mID="66" v:groupContext="shape" transform="translate(195.268,-13.5266)">
			<title>text168</title>
			<desc>2</desc>
			<v:textBlock v:margins="rect(0,0,0,0)"/>
			<v:textRect cx="6.775" cy="290.4" width="13.55" height="16.2"/>
			<rect x="0" y="282.3" width="13.55" height="16.2" class="st1"/>
			<text x="0" y="294.45" class="st13" v:langID="1031"><v:paragraph/><v:tabList/>2</text>		</g>
	</g>
</svg>
